<svg xmlns="http://www.w3.org/2000/svg" style="display:none">
  <!-- Stroke icon set (Lucide-style geometry, 24x24, stroke=currentColor). -->
  <symbol id="i-dice" viewBox="0 0 24 24"><rect x="3" y="3" width="18" height="18" rx="4"/><circle cx="8" cy="8" r="0.8" fill="currentColor"/><circle cx="16" cy="8" r="0.8" fill="currentColor"/><circle cx="12" cy="12" r="0.8" fill="currentColor"/><circle cx="8" cy="16" r="0.8" fill="currentColor"/><circle cx="16" cy="16" r="0.8" fill="currentColor"/></symbol>
  <symbol id="i-users" viewBox="0 0 24 24"><path d="M16 21v-2a4 4 0 0 0-4-4H6a4 4 0 0 0-4 4v2"/><circle cx="9" cy="7" r="4"/><path d="M22 21v-2a4 4 0 0 0-3-3.87"/><path d="M16 3.13a4 4 0 0 1 0 7.75"/></symbol>
  <symbol id="i-user" viewBox="0 0 24 24"><path d="M19 21v-2a4 4 0 0 0-4-4H9a4 4 0 0 0-4 4v2"/><circle cx="12" cy="7" r="4"/></symbol>
  <symbol id="i-clock" viewBox="0 0 24 24"><circle cx="12" cy="12" r="10"/><polyline points="12 6 12 12 16 14"/></symbol>
  <symbol id="i-alarm" viewBox="0 0 24 24"><circle cx="12" cy="13" r="8"/><path d="M12 9v4l2 2"/><path d="M5 3 2 6"/><path d="m22 6-3-3"/></symbol>
  <symbol id="i-pin" viewBox="0 0 24 24"><path d="M20 10c0 6-8 12-8 12s-8-6-8-12a8 8 0 0 1 16 0Z"/><circle cx="12" cy="10" r="3"/></symbol>
  <symbol id="i-award" viewBox="0 0 24 24"><circle cx="12" cy="8" r="6"/><polyline points="8.21 13.89 7 23 12 20 17 23 15.79 13.88"/></symbol>
  <symbol id="i-crown" viewBox="0 0 24 24"><path d="M2 18h20l-1.5-9-5 4L12 5l-3.5 8-5-4L2 18Z"/></symbol>
  <symbol id="i-trophy" viewBox="0 0 24 24"><path d="M6 9H4.5a2.5 2.5 0 0 1 0-5H6"/><path d="M18 9h1.5a2.5 2.5 0 0 0 0-5H18"/><path d="M4 22h16"/><path d="M10 14.66V17c0 .55-.47.98-.97 1.21C7.85 18.75 7 20.24 7 22"/><path d="M14 14.66V17c0 .55.47.98.97 1.21 1.18.54 2.03 2.03 2.03 3.79"/><path d="M18 2H6v7a6 6 0 0 0 12 0V2Z"/></symbol>
  <symbol id="i-swords" viewBox="0 0 24 24"><polyline points="14.5 17.5 3 6 3 3 6 3 17.5 14.5"/><line x1="13" y1="19" x2="19" y2="13"/><line x1="16" y1="16" x2="20" y2="20"/><line x1="19" y1="21" x2="21" y2="19"/><polyline points="14.5 6.5 18 3 21 3 21 6 17.5 9.5"/><line x1="5" y1="14" x2="9" y2="18"/><line x1="7" y1="17" x2="4" y2="20"/><line x1="3" y1="19" x2="5" y2="21"/></symbol>
  <symbol id="i-home" viewBox="0 0 24 24"><path d="m3 11 9-8 9 8"/><path d="M5 10v10a1 1 0 0 0 1 1h12a1 1 0 0 0 1-1V10"/></symbol>
  <symbol id="i-menu" viewBox="0 0 24 24"><line x1="4" y1="6" x2="20" y2="6"/><line x1="4" y1="12" x2="20" y2="12"/><line x1="4" y1="18" x2="20" y2="18"/></symbol>
  <symbol id="i-globe" viewBox="0 0 24 24"><circle cx="12" cy="12" r="10"/><path d="M2 12h20"/><path d="M12 2a15.3 15.3 0 0 1 4 10 15.3 15.3 0 0 1-4 10 15.3 15.3 0 0 1-4-10 15.3 15.3 0 0 1 4-10z"/></symbol>
  <symbol id="i-clipboard" viewBox="0 0 24 24"><rect x="8" y="2" width="8" height="4" rx="1"/><path d="M16 4h2a2 2 0 0 1 2 2v14a2 2 0 0 1-2 2H6a2 2 0 0 1-2-2V6a2 2 0 0 1 2-2h2"/><path d="M9 12h6"/><path d="M9 16h6"/></symbol>
  <symbol id="i-hash" viewBox="0 0 24 24"><line x1="4" y1="9" x2="20" y2="9"/><line x1="4" y1="15" x2="20" y2="15"/><line x1="10" y1="3" x2="8" y2="21"/><line x1="16" y1="3" x2="14" y2="21"/></symbol>
  <symbol id="i-link" viewBox="0 0 24 24"><path d="M10 13a5 5 0 0 0 7.54.54l3-3a5 5 0 0 0-7.07-7.07l-1.72 1.71"/><path d="M14 11a5 5 0 0 0-7.54-.54l-3 3a5 5 0 0 0 7.07 7.07l1.71-1.71"/></symbol>
  <symbol id="i-ghost" viewBox="0 0 24 24"><path d="M9 10h.01"/><path d="M15 10h.01"/><path d="M12 2a8 8 0 0 0-8 8v12l3-3 2.5 3 2.5-3 2.5 3 2.5-3 3 3V10a8 8 0 0 0-8-8Z"/></symbol>
  <symbol id="i-search" viewBox="0 0 24 24"><circle cx="11" cy="11" r="8"/><line x1="21" y1="21" x2="16.65" y2="16.65"/></symbol>
  <symbol id="i-external" viewBox="0 0 24 24"><path d="M7 7h10v10"/><path d="M7 17 17 7"/></symbol>
  <symbol id="i-backpack" viewBox="0 0 24 24"><path d="M4 10a4 4 0 0 1 4-4h8a4 4 0 0 1 4 4v9a2 2 0 0 1-2 2H6a2 2 0 0 1-2-2v-9Z"/><path d="M9 6V4a2 2 0 0 1 2-2h2a2 2 0 0 1 2 2v2"/><path d="M8 21v-5a2 2 0 0 1 2-2h4a2 2 0 0 1 2 2v5"/><path d="M8 10h8"/></symbol>
  <symbol id="i-pencil" viewBox="0 0 24 24"><path d="M17 3a2.85 2.85 0 1 1 4 4L7.5 20.5 2 22l1.5-5.5Z"/></symbol>
  <symbol id="i-x" viewBox="0 0 24 24"><path d="M18 6 6 18"/><path d="m6 6 12 12"/></symbol>
  <symbol id="i-alert" viewBox="0 0 24 24"><path d="M10.29 3.86 1.82 18a2 2 0 0 0 1.71 3h16.94a2 2 0 0 0 1.71-3L13.71 3.86a2 2 0 0 0-3.42 0Z"/><line x1="12" y1="9" x2="12" y2="13"/><circle cx="12" cy="17" r="0.8" fill="currentColor"/></symbol>
  <symbol id="i-eye" viewBox="0 0 24 24"><path d="M2 12s3.5-7 10-7 10 7 10 7-3.5 7-10 7-10-7-10-7Z"/><circle cx="12" cy="12" r="3"/></symbol>
  <symbol id="i-calendar" viewBox="0 0 24 24"><rect x="3" y="4" width="18" height="18" rx="2"/><line x1="16" y1="2" x2="16" y2="6"/><line x1="8" y1="2" x2="8" y2="6"/><line x1="3" y1="10" x2="21" y2="10"/></symbol>
  <symbol id="i-gift" viewBox="0 0 24 24"><rect x="3" y="8" width="18" height="4"/><path d="M5 12v8a1 1 0 0 0 1 1h12a1 1 0 0 0 1-1v-8"/><line x1="12" y1="8" x2="12" y2="21"/><path d="M12 8a3 3 0 1 0-3-5c1.5 1 2.5 3 3 5Z"/><path d="M12 8a3 3 0 1 1 3-5c-1.5 1-2.5 3-3 5Z"/></symbol>
  <symbol id="i-key" viewBox="0 0 24 24"><circle cx="7.5" cy="15.5" r="4.5"/><path d="m10.7 12.3 8.8-8.8"/><path d="m15 6 3 3"/><path d="m18.5 2.5 3 3"/></symbol>
  <symbol id="i-bell" viewBox="0 0 24 24"><path d="M18 8a6 6 0 0 0-12 0c0 7-3 9-3 9h18s-3-2-3-9"/><path d="M13.7 21a2 2 0 0 1-3.4 0"/></symbol>
  <symbol id="i-tag" viewBox="0 0 24 24"><path d="M12.6 2.6a2 2 0 0 0-1.4-.6H4a2 2 0 0 0-2 2v7.2c0 .53.21 1.04.59 1.41l9.4 9.4a2 2 0 0 0 2.82 0l7.2-7.2a2 2 0 0 0 0-2.82Z"/><circle cx="7.5" cy="7.5" r="1" fill="currentColor"/></symbol>
  <symbol id="i-activity" viewBox="0 0 24 24"><polyline points="22 12 18 12 15 21 9 3 6 12 2 12"/></symbol>
  <symbol id="i-check" viewBox="0 0 24 24"><polyline points="20 6 9 17 4 12"/></symbol>
</svg>
